<svg xmlns="http://www.w3.org/2000/svg" viewBox="0 0 120 140">
  <defs>
    <clipPath id="shield"><path d="M60 6 L112 24 V72 C112 106 91 126 60 134 C29 126 8 106 8 72 V24 Z"/></clipPath>
  </defs>
  <path d="M60 6 L112 24 V72 C112 106 91 126 60 134 C29 126 8 106 8 72 V24 Z" fill="#c8102e"/>
  <g clip-path="url(#shield)">
    
        <rect x="0" y="0" width="120" height="140" fill="#c8102e"/>
        <circle cx="60" cy="50" r="40" fill="#f5f5f2"/>
        <circle cx="60" cy="50" r="32" fill="#c8102e"/>
        <circle cx="60" cy="50" r="24" fill="#f5f5f2"/>
        <circle cx="60" cy="50" r="16" fill="#c8102e"/>
      
    <rect x="0" y="80" width="120" height="26" fill="#101828"/>
  </g>
  <text x="60" y="93" text-anchor="middle" dominant-baseline="middle"
        font-family="Arial, Helvetica, sans-serif" font-weight="bold"
        font-size="30" fill="#ffffff" letter-spacing="1">CA</text>
  <path d="M60 6 L112 24 V72 C112 106 91 126 60 134 C29 126 8 106 8 72 V24 Z" fill="none" stroke="rgba(16,24,40,0.9)" stroke-width="3"/>
  <path d="M60 12 L106 28 V71 C106 101 88 119 60 127 C32 119 14 101 14 71 V28 Z"
        fill="none" stroke="rgba(255,255,255,0.4)" stroke-width="1.5"/>
</svg>